<svg width="118" height="14" viewBox="0 0 118 14" fill="none" xmlns="http://www.w3.org/2000/svg">
<path d="M0.970551 0.240005H5.65055C7.62388 0.240005 9.03055 0.440005 9.87055 0.840005C10.7239 1.22667 11.2572 1.86001 11.4706 2.74001C11.6839 3.62001 11.7906 5.08 11.7906 7.12C11.7906 9.16 11.6839 10.62 11.4706 11.5C11.2572 12.38 10.7239 13.02 9.87055 13.42C9.03055 13.8067 7.62388 14 5.65055 14H0.970551V0.240005ZM5.51055 11.54C6.72388 11.54 7.53722 11.4733 7.95055 11.34C8.36388 11.2067 8.62388 10.8667 8.73055 10.32C8.85055 9.77334 8.91055 8.70667 8.91055 7.12C8.91055 5.54667 8.85055 4.48667 8.73055 3.94C8.61055 3.38 8.34388 3.03334 7.93055 2.90001C7.53055 2.76667 6.72388 2.70001 5.51055 2.70001H3.81055V11.54H5.51055Z"/>
<path d="M16.6615 14C16.6615 8.62639 16.6615 5.61362 16.6615 0.240005H19.5015V14H16.6615Z" />
<path d="M33.6348 14L32.6348 11.04H27.2748L26.2948 14H23.4348L28.0948 0.240005H31.9148L36.5748 14H33.6348ZM29.9948 2.92001H29.8948L28.0348 8.56001H31.8748L29.9948 2.92001Z" />
<path d="M50.1871 14V2.82001H46.1871V0.240005H57.0271V2.82001H53.0271V14H50.1871Z" />
<path d="M69.0477 14L67.0277 9.02001H63.9277V14H61.0877V0.240005H67.5677C68.7544 0.240005 69.6544 0.420005 70.2677 0.780005C70.8944 1.12667 71.3077 1.61334 71.5077 2.24001C71.7211 2.85334 71.8277 3.64667 71.8277 4.62C71.8277 6.79334 71.1744 8.13334 69.8677 8.64001L72.0677 14H69.0477ZM66.4277 6.56001C67.2011 6.56001 67.7611 6.50667 68.1077 6.40001C68.4677 6.29334 68.6944 6.11334 68.7877 5.86001C68.8944 5.59334 68.9477 5.18 68.9477 4.62C68.9477 4.04667 68.8944 3.63334 68.7877 3.38C68.6944 3.12667 68.4744 2.95334 68.1277 2.86C67.7944 2.75334 67.2344 2.70001 66.4477 2.70001H63.9277V6.56001H66.4277Z" />
<path d="M85.502 14L84.502 11.04H79.142L78.162 14H75.302L79.962 0.240005H83.782L88.442 14H85.502ZM81.862 2.92001H81.762L79.902 8.56001H83.742L81.862 2.92001Z" />
<path d="M92.3924 0.240005H97.0724C99.0458 0.240005 100.452 0.440005 101.292 0.840005C102.146 1.22667 102.679 1.86001 102.892 2.74001C103.106 3.62001 103.212 5.08 103.212 7.12C103.212 9.16 103.106 10.62 102.892 11.5C102.679 12.38 102.146 13.02 101.292 13.42C100.452 13.8067 99.0458 14 97.0724 14H92.3924V0.240005ZM96.9324 11.54C98.1458 11.54 98.9591 11.4733 99.3724 11.34C99.7858 11.2067 100.046 10.8667 100.152 10.32C100.272 9.77334 100.332 8.70667 100.332 7.12C100.332 5.54667 100.272 4.48667 100.152 3.94C100.032 3.38 99.7658 3.03334 99.3524 2.90001C98.9524 2.76667 98.1458 2.70001 96.9324 2.70001H95.2324V11.54H96.9324Z" />
<path d="M108.103 14V0.240005H117.563V2.70001H110.943V5.82001H116.623V8.28H110.943V11.54H117.563V14H108.103Z" />
</svg>
