<svg width="64" height="29" viewBox="0 0 64 29" fill="none" xmlns="http://www.w3.org/2000/svg">
  <path d="M9.55078 13.0957C9.69401 13.3366 9.94141 13.5482 10.293 13.7305C10.651 13.9062 10.9701 14.0202 11.25 14.0723L11.123 14.668C10.9082 14.7721 10.5273 14.8926 9.98047 15.0293C9.4401 15.1725 9.00716 15.2441 8.68164 15.2441C8.35612 14.5866 7.97201 14.0788 7.5293 13.7207C7.17773 14.1764 6.73828 14.5443 6.21094 14.8242C5.6901 15.1042 5.13021 15.2441 4.53125 15.2441C3.85417 15.2441 3.22266 15.0879 2.63672 14.7754C2.05729 14.4629 1.58203 13.9714 1.21094 13.3008C0.846354 12.6237 0.664063 11.7676 0.664063 10.7324C0.664063 9.76237 0.843099 8.87695 1.20117 8.07617C1.56576 7.27539 2.07031 6.64388 2.71484 6.18164C3.36589 5.71289 4.10482 5.47852 4.93164 5.47852C5.32878 5.47852 5.7194 5.55013 6.10352 5.69336C6.48763 5.83659 6.84896 6.04492 7.1875 6.31836V2.48047L5.74219 1.66992L5.83008 1.2207L9.55078 0.625V13.0957ZM4.45312 13.3594C4.71354 13.6068 4.96419 13.7305 5.20508 13.7305C5.51758 13.7305 5.85612 13.6947 6.2207 13.623C6.5918 13.5449 6.91406 13.4473 7.1875 13.3301V8.13477C6.92708 7.75065 6.5625 7.45117 6.09375 7.23633C5.63151 7.01497 5.15299 6.9043 4.6582 6.9043C4.38477 6.9043 4.15039 6.93685 3.95508 7.00195C3.76628 7.06055 3.61979 7.18424 3.51562 7.37305C3.1901 7.91992 3.02734 8.7207 3.02734 9.77539C3.02734 10.5632 3.16406 11.2728 3.4375 11.9043C3.71745 12.5293 4.05599 13.0143 4.45312 13.3594Z" fill="black"/>
  <path d="M15.9414 3.89648C15.9219 3.90299 15.8828 3.90625 15.8242 3.90625C15.668 3.90625 15.4596 3.85742 15.1992 3.75977C14.9453 3.6556 14.7109 3.5319 14.4961 3.38867C14.2812 3.24544 14.151 3.11523 14.1055 2.99805C14.0924 2.94596 14.0859 2.90039 14.0859 2.86133C14.0859 2.69857 14.138 2.48698 14.2422 2.22656C14.3529 1.96615 14.4798 1.73177 14.623 1.52344C14.7728 1.30859 14.903 1.18164 15.0137 1.14258C15.0658 1.12956 15.1146 1.12305 15.1602 1.12305C15.3294 1.12305 15.541 1.17839 15.7949 1.28906C16.0488 1.39323 16.2799 1.52018 16.4883 1.66992C16.6966 1.81315 16.8203 1.93685 16.8594 2.04102C16.8724 2.0931 16.8789 2.13542 16.8789 2.16797C16.8789 2.33073 16.8236 2.54232 16.7129 2.80273C16.6087 3.06315 16.4818 3.30078 16.332 3.51562C16.1823 3.73047 16.0521 3.85742 15.9414 3.89648ZM14.3496 13.6816V7.45117L12.9043 6.64062L12.9922 6.18164L16.7129 5.57617V13.7207L18.1973 14.2871L18.041 15H12.8262L12.9727 14.2188L14.3496 13.6816Z" fill="black"/>
  <path d="M20.125 12.6465C20.125 12.015 20.2389 11.5104 20.4668 11.1328C20.6947 10.7552 21.0723 10.4557 21.5996 10.2344C21.9447 10.0846 22.3646 9.97396 22.8594 9.90234C23.3542 9.83073 23.8392 9.79492 24.3145 9.79492C24.7572 9.79492 25.1803 9.82096 25.584 9.87305V9.3457C25.584 8.75326 25.5254 8.21615 25.4082 7.73437C25.2975 7.24609 25.0729 6.89779 24.7344 6.68945C24.6107 6.61133 24.4479 6.55273 24.2461 6.51367C24.0508 6.47461 23.8457 6.45508 23.6309 6.45508C23.4421 6.45508 23.25 6.47786 23.0547 6.52344L22.752 8.24219C22.6283 8.35286 22.4883 8.44727 22.332 8.52539C22.1758 8.59701 22.0423 8.63281 21.9316 8.63281C21.7689 8.63281 21.5671 8.55794 21.3262 8.4082C21.0918 8.25195 20.8867 8.06315 20.7109 7.8418C20.5417 7.62044 20.457 7.41211 20.457 7.2168C20.457 7.04753 20.5677 6.87826 20.7891 6.70898C21.0104 6.53971 21.2708 6.38672 21.5703 6.25C22.1042 6.01562 22.7389 5.83008 23.4746 5.69336C24.2168 5.55013 24.7832 5.47852 25.1738 5.47852C26.1504 5.47852 26.8568 5.74219 27.293 6.26953C27.7292 6.79036 27.9473 7.50651 27.9473 8.41797V13.0859C28.3249 13.5677 28.8913 13.903 29.6465 14.0918L29.5195 14.6582C28.7253 15.0293 27.8854 15.2246 27 15.2441C26.8438 14.9251 26.6777 14.6419 26.502 14.3945C26.3262 14.1471 26.1081 13.9193 25.8477 13.7109C25.6654 13.9648 25.4147 14.209 25.0957 14.4434C24.7767 14.6777 24.4186 14.8698 24.0215 15.0195C23.6243 15.1693 23.2174 15.2441 22.8008 15.2441C22.1758 15.2441 21.6615 15.1139 21.2578 14.8535C20.8607 14.5931 20.571 14.2643 20.3887 13.8672C20.2129 13.4701 20.125 13.0632 20.125 12.6465ZM23.2598 13.7598C23.3314 13.8249 23.4323 13.8574 23.5625 13.8574C23.8359 13.8574 24.1777 13.8086 24.5879 13.7109C24.998 13.6133 25.3301 13.5059 25.584 13.3887V10.5078C25.0176 10.5729 24.5228 10.6608 24.0996 10.7715C23.6764 10.8822 23.3444 10.9993 23.1035 11.123C22.8626 11.2402 22.7064 11.3411 22.6348 11.4258C22.5306 11.5625 22.4785 11.7741 22.4785 12.0605C22.4785 12.373 22.5566 12.7051 22.7129 13.0566C22.8691 13.4082 23.0514 13.6426 23.2598 13.7598Z" fill="black"/>
  <path d="M13.4453 18.7227H14.8711L15.1836 16.6426L17.2344 15.8027V18.7227H20.3008L20.1445 19.5723L17.2344 20.1875V24.416C17.2344 24.9303 17.2995 25.4023 17.4297 25.832C17.5664 26.2552 17.7585 26.5482 18.0059 26.7109C18.1165 26.7826 18.2695 26.8184 18.4648 26.8184C18.7969 26.8184 19.4089 26.7272 20.3008 26.5449C20.444 26.5189 20.5156 26.5059 20.5156 26.5059L20.6816 26.9062C20.2975 27.2448 19.8223 27.554 19.2559 27.834C18.6895 28.1074 18.1458 28.2441 17.625 28.2441C16.7656 28.2441 16.0918 27.974 15.6035 27.4336C15.1152 26.8932 14.8711 26.0534 14.8711 24.9141V20.1875L13.2695 19.5918L13.4453 18.7227Z" fill="black"/>
  <path d="M22.2285 19.6504L22.3164 19.1719L25.373 18.625L25.9102 20.4219C26.3138 19.7253 26.7077 19.2337 27.0918 18.9473C27.4759 18.6543 27.9023 18.5078 28.3711 18.5078C28.5339 18.5078 28.7129 18.5404 28.9082 18.6055C29.1035 18.6641 29.2891 18.7454 29.4648 18.8496C29.6667 18.9733 29.8294 19.1165 29.9531 19.2793C30.0833 19.4355 30.1484 19.5983 30.1484 19.7676C30.1484 19.9564 30.0605 20.181 29.8848 20.4414C29.7155 20.6953 29.5104 20.9167 29.2695 21.1055C29.0352 21.2878 28.8301 21.3789 28.6543 21.3789C28.5306 21.3789 28.3874 21.3464 28.2246 21.2812C28.0618 21.2096 27.9284 21.1315 27.8242 21.0469L27.6289 20.0215C27.3945 20.1061 27.1211 20.2526 26.8086 20.4609C26.4961 20.6628 26.2389 20.8548 26.0371 21.0371V26.7207L28.6152 27.2773L28.459 28H22.1406L22.2969 27.1992L23.6738 26.623V20.4512L22.2285 19.6504Z" fill="black"/>
  <path d="M31.8711 25.6465C31.8711 25.015 31.985 24.5104 32.2129 24.1328C32.4408 23.7552 32.8184 23.4557 33.3457 23.2344C33.6908 23.0846 34.1107 22.974 34.6055 22.9023C35.1003 22.8307 35.5853 22.7949 36.0605 22.7949C36.5033 22.7949 36.9264 22.821 37.3301 22.873V22.3457C37.3301 21.7533 37.2715 21.2161 37.1543 20.7344C37.0436 20.2461 36.819 19.8978 36.4805 19.6895C36.3568 19.6113 36.194 19.5527 35.9922 19.5137C35.7969 19.4746 35.5918 19.4551 35.377 19.4551C35.1882 19.4551 34.9961 19.4779 34.8008 19.5234L34.498 21.2422C34.3743 21.3529 34.2344 21.4473 34.0781 21.5254C33.9219 21.597 33.7884 21.6328 33.6777 21.6328C33.515 21.6328 33.3132 21.5579 33.0723 21.4082C32.8379 21.252 32.6328 21.0632 32.457 20.8418C32.2878 20.6204 32.2031 20.4121 32.2031 20.2168C32.2031 20.0475 32.3138 19.8783 32.5352 19.709C32.7565 19.5397 33.0169 19.3867 33.3164 19.25C33.8503 19.0156 34.485 18.8301 35.2207 18.6934C35.9629 18.5501 36.5293 18.4785 36.9199 18.4785C37.8965 18.4785 38.6029 18.7422 39.0391 19.2695C39.4753 19.7904 39.6934 20.5065 39.6934 21.418V26.0859C40.071 26.5677 40.6374 26.903 41.3926 27.0918L41.2656 27.6582C40.4714 28.0293 39.6315 28.2246 38.7461 28.2441C38.5898 27.9251 38.4238 27.6419 38.248 27.3945C38.0723 27.1471 37.8542 26.9193 37.5938 26.7109C37.4115 26.9648 37.1608 27.209 36.8418 27.4434C36.5228 27.6777 36.1647 27.8698 35.7676 28.0195C35.3704 28.1693 34.9635 28.2441 34.5469 28.2441C33.9219 28.2441 33.4076 28.1139 33.0039 27.8535C32.6068 27.5931 32.3171 27.2643 32.1348 26.8672C31.959 26.4701 31.8711 26.0632 31.8711 25.6465ZM35.0059 26.7598C35.0775 26.8249 35.1784 26.8574 35.3086 26.8574C35.582 26.8574 35.9238 26.8086 36.334 26.7109C36.7441 26.6133 37.0762 26.5059 37.3301 26.3887V23.5078C36.7637 23.5729 36.2689 23.6608 35.8457 23.7715C35.4225 23.8822 35.0905 23.9993 34.8496 24.123C34.6087 24.2402 34.4525 24.3411 34.3809 24.4258C34.2767 24.5625 34.2246 24.7741 34.2246 25.0605C34.2246 25.373 34.3027 25.7051 34.459 26.0566C34.6152 26.4082 34.7975 26.6426 35.0059 26.7598Z" fill="black"/>
  <path d="M51.6797 26.0957C51.8229 26.3366 52.0703 26.5482 52.4219 26.7305C52.7799 26.9062 53.099 27.0202 53.3789 27.0723L53.252 27.668C53.0371 27.7721 52.6562 27.8926 52.1094 28.0293C51.569 28.1725 51.1361 28.2441 50.8105 28.2441C50.485 27.5866 50.1009 27.0788 49.6582 26.7207C49.3066 27.1764 48.8672 27.5443 48.3398 27.8242C47.819 28.1042 47.2591 28.2441 46.6602 28.2441C45.9831 28.2441 45.3516 28.0879 44.7656 27.7754C44.1862 27.4629 43.7109 26.9714 43.3398 26.3008C42.9753 25.6237 42.793 24.7676 42.793 23.7324C42.793 22.7624 42.972 21.877 43.3301 21.0762C43.6947 20.2754 44.1992 19.6439 44.8438 19.1816C45.4948 18.7129 46.2337 18.4785 47.0605 18.4785C47.4577 18.4785 47.8483 18.5501 48.2324 18.6934C48.6165 18.8366 48.9779 19.0449 49.3164 19.3184V15.4805L47.8711 14.6699L47.959 14.2207L51.6797 13.625V26.0957ZM46.582 26.3594C46.8424 26.6068 47.0931 26.7305 47.334 26.7305C47.6465 26.7305 47.985 26.6947 48.3496 26.623C48.7207 26.5449 49.043 26.4473 49.3164 26.3301V21.1348C49.056 20.7507 48.6914 20.4512 48.2227 20.2363C47.7604 20.015 47.2819 19.9043 46.7871 19.9043C46.5137 19.9043 46.2793 19.9368 46.084 20.002C45.8952 20.0605 45.7487 20.1842 45.6445 20.373C45.319 20.9199 45.1562 21.7207 45.1562 22.7754C45.1562 23.5632 45.293 24.2728 45.5664 24.9043C45.8464 25.5293 46.1849 26.0143 46.582 26.3594Z" fill="black"/>
  <path d="M63.0996 23.0586C63.054 23.1758 62.9922 23.2637 62.9141 23.3223C62.8424 23.3743 62.735 23.4004 62.5918 23.4004H57.416C57.4746 23.9733 57.6276 24.5137 57.875 25.0215C58.1289 25.5293 58.4544 25.9395 58.8516 26.252C59.2487 26.5579 59.6849 26.7109 60.1602 26.7109C60.5638 26.7109 61.0553 26.6426 61.6348 26.5059C62.2207 26.3691 62.6309 26.2552 62.8652 26.1641L63.0605 26.4961C62.8197 26.7956 62.5039 27.0788 62.1133 27.3457C61.7292 27.6126 61.2995 27.8307 60.8242 28C60.349 28.1628 59.8737 28.2441 59.3984 28.2441C58.6302 28.2441 57.9206 28.0814 57.2695 27.7559C56.625 27.4238 56.1042 26.9062 55.707 26.2031C55.3099 25.4935 55.1113 24.6048 55.1113 23.5371C55.1113 22.6191 55.3066 21.776 55.6973 21.0078C56.0944 20.2331 56.6543 19.6178 57.377 19.1621C58.0996 18.7064 58.9297 18.4785 59.8672 18.4785C60.5768 18.4785 61.1921 18.6217 61.7129 18.9082C62.2337 19.1947 62.6341 19.5853 62.9141 20.0801C63.194 20.5684 63.334 21.1152 63.334 21.7207C63.334 22.209 63.2559 22.6549 63.0996 23.0586ZM61.2539 22.2285C61.2279 21.6947 61.1074 21.2422 60.8926 20.8711C60.6777 20.4935 60.3945 20.2103 60.043 20.0215C59.6914 19.8262 59.3073 19.7285 58.8906 19.7285C58.487 19.7285 58.2168 19.8034 58.0801 19.9531C57.9108 20.1615 57.7578 20.4967 57.6211 20.959C57.4909 21.4147 57.416 21.9681 57.3965 22.6191L61.2539 22.2285Z" fill="black"/>
</svg>
