<!-- Generator: Adobe Illustrator 19.0.0, SVG Export Plug-In . SVG Version: 6.00 Build 0)  -->
<svg version="1.1" id="Capa_1" xmlns="http://www.w3.org/2000/svg" xmlns:xlink="http://www.w3.org/1999/xlink" x="0px" y="0px"
	 viewBox="0 0 511.345 511.345" xml:space="preserve">
	<rect x="3.995" y="367.533" style="fill:#FFD2A6;" width="111.86" height="31.959"/>
	<g>
		<polygon style="fill:#F2C397;" points="115.852,367.531 3.995,367.531 211.73,159.794 323.586,159.794 	"/>
		<polygon style="fill:#F2C397;" points="115.852,399.49 115.852,367.531 323.586,159.794 323.586,191.761 	"/>
	</g>
	<g style="opacity:0.2;">
		<polygon points="115.852,399.49 115.852,367.531 323.586,159.794 323.586,191.761 	"/>
	</g>
	<g style="opacity:0.2;">
		<polygon points="115.852,367.531 307.614,175.774 271.652,175.774 79.899,367.531 	"/>
	</g>
	<rect x="187.763" y="367.533" style="fill:#FFD2A6;" width="111.86" height="31.959"/>
	<polygon style="fill:#F2C397;" points="299.616,367.531 187.76,367.531 395.493,159.794 507.351,159.794 "/>
	<g style="opacity:0.2;">
		<polygon points="491.37,159.794 283.637,367.531 299.616,367.531 507.351,159.794 	"/>
	</g>
	<polygon style="fill:#F2C397;" points="299.616,399.49 299.616,367.531 507.351,159.794 507.351,191.761 "/>
	<g style="opacity:0.2;">
		<polygon points="299.616,399.49 299.616,367.531 507.351,159.794 507.351,191.761 	"/>
	</g>
	<rect x="95.873" y="319.593" style="fill:#FFD2A6;" width="111.86" height="31.959"/>
	<polygon style="fill:#F2C397;" points="207.735,319.593 95.878,319.593 303.611,111.856 415.468,111.856 "/>
	<g style="opacity:0.4;">
		<polygon style="fill:#FFFFFF;" points="303.611,111.856 95.878,319.593 111.858,319.593 319.591,111.856 	"/>
	</g>
	<g style="opacity:0.4;">
		<polygon style="fill:#FFFFFF;" points="211.73,159.794 3.995,367.531 19.975,367.531 227.709,159.794 	"/>
	</g>
	<polygon style="fill:#F2C397;" points="207.735,351.552 207.735,319.593 415.468,111.856 415.468,143.822 "/>
	<g style="opacity:0.2;">
		<polygon points="207.735,351.552 207.735,319.593 415.468,111.856 415.468,143.822 	"/>
	</g>
	<g style="opacity:0.2;">
		<polygon points="223.714,351.552 415.476,159.794 395.493,159.794 203.739,351.552 	"/>
	</g>
	<g style="opacity:0.4;">
		<rect x="3.995" y="367.533" style="fill:#FFFFFF;" width="15.979" height="31.959"/>
	</g>
	<g style="opacity:0.4;">
		<rect x="187.693" y="367.533" style="fill:#FFFFFF;" width="15.979" height="31.959"/>
	</g>
	<g style="opacity:0.4;">
		<rect x="95.873" y="319.593" style="fill:#FFFFFF;" width="15.979" height="31.959"/>
	</g>
	<g>
		<path style="fill:#3A3847;" d="M207.735,355.547H95.878c-2.208,0-3.995-1.779-3.995-3.995v-31.959c0-2.2,1.787-3.995,3.995-3.995
			h111.856c2.208,0,3.995,1.795,3.995,3.995v31.959C211.73,353.768,209.943,355.547,207.735,355.547z M99.873,347.558H203.74v-23.97
			H99.873V347.558z"/>
		<path style="fill:#3A3847;" d="M415.468,115.85H303.611c-2.208,0-3.995-1.787-3.995-3.995s1.787-3.995,3.995-3.995h111.856
			c2.208,0,3.995,1.787,3.995,3.995S417.676,115.85,415.468,115.85z"/>
		<path style="fill:#3A3847;" d="M207.735,323.588c-1.022,0-2.044-0.391-2.825-1.171c-1.56-1.561-1.56-4.088,0-5.648l207.734-207.738
			c1.561-1.561,4.088-1.561,5.648,0s1.561,4.088,0,5.649L210.559,322.417C209.778,323.197,208.756,323.588,207.735,323.588z"/>
		<path style="fill:#3A3847;" d="M207.735,355.547c-1.022,0-2.044-0.39-2.825-1.171c-1.56-1.561-1.56-4.088,0-5.648l207.734-207.73
			c1.561-1.561,4.088-1.561,5.648,0s1.561,4.088,0,5.649L210.559,354.376C209.778,355.157,208.756,355.547,207.735,355.547z"/>
		<path style="fill:#3A3847;" d="M95.878,323.588c-1.022,0-2.044-0.391-2.825-1.171c-1.561-1.561-1.561-4.088,0-5.648
			l207.734-207.738c1.561-1.561,4.089-1.561,5.648,0c1.561,1.561,1.561,4.088,0,5.649L98.702,322.417
			C97.922,323.197,96.9,323.588,95.878,323.588z"/>
		<path style="fill:#3A3847;" d="M415.468,147.817c-2.208,0-3.994-1.787-3.994-3.995v-31.967c0-2.208,1.786-3.995,3.994-3.995
			s3.995,1.787,3.995,3.995v31.967C419.463,146.03,417.676,147.817,415.468,147.817z"/>
		<path style="fill:#3A3847;" d="M178.6,322.417l-5.649-5.648l55.924-55.925c24.184-24.199,45.009-8.489,45.228-8.317
			c1.748,1.354,2.06,3.862,0.702,5.606c-1.343,1.743-3.854,2.067-5.603,0.698c-0.601-0.457-15.612-11.399-34.678,7.658L178.6,322.417
			z"/>
	</g>
	<g>
		<path style="fill:#3A3847;" d="M203.739,187.766c-1.022,0-2.044-0.39-2.824-1.17c-1.561-1.561-1.561-4.089,0-5.649l23.969-23.969
			c1.56-1.561,4.088-1.561,5.649,0s1.561,4.088,0,5.649l-23.969,23.97C205.784,187.376,204.762,187.766,203.739,187.766z"/>
		<path style="fill:#3A3847;" d="M115.852,403.485H3.995c-2.208,0-3.995-1.779-3.995-3.995v-31.959c0-2.2,1.787-3.995,3.995-3.995
			h111.857c2.208,0,3.995,1.795,3.995,3.995v31.959C119.847,401.706,118.06,403.485,115.852,403.485z M7.99,395.495h103.867v-23.969
			H7.99V395.495z"/>
		<path style="fill:#3A3847;" d="M247.699,163.773H211.73c-2.208,0-3.995-1.787-3.995-3.995s1.787-3.995,3.995-3.995h35.969
			c2.208,0,3.995,1.787,3.995,3.995S249.907,163.773,247.699,163.773z"/>
		<path style="fill:#3A3847;" d="M115.852,403.485c-1.022,0-2.044-0.391-2.825-1.17c-1.561-1.561-1.561-4.089,0-5.649l39.699-39.699
			c1.561-1.561,4.089-1.561,5.649,0s1.56,4.089,0,5.649l-39.699,39.699C117.897,403.095,116.874,403.485,115.852,403.485z"/>
		<path style="fill:#3A3847;" d="M3.995,371.527c-1.021,0-2.044-0.391-2.824-1.17c-1.561-1.561-1.561-4.089,0-5.649L208.904,156.97
			c1.561-1.561,4.089-1.561,5.649,0s1.561,4.088,0,5.649L6.82,370.357C6.04,371.136,5.018,371.527,3.995,371.527z"/>
		<path style="fill:#3A3847;" d="M299.616,403.485H187.76c-2.208,0-3.995-1.779-3.995-3.995v-31.959c0-2.2,1.787-3.995,3.995-3.995
			h111.856c2.209,0,3.995,1.795,3.995,3.995v31.959C303.611,401.706,301.825,403.485,299.616,403.485z M191.755,395.495h103.867
			v-23.969H191.755V395.495z"/>
		<path style="fill:#3A3847;" d="M507.351,163.789h-99.833c-2.208,0-3.995-1.787-3.995-3.995s1.787-3.995,3.995-3.995h99.833
			c2.208,0,3.994,1.787,3.994,3.995S509.559,163.789,507.351,163.789z"/>
	</g>
	<g>
		<path style="fill:#3A3847;" d="M299.616,371.527c-1.021,0-2.044-0.391-2.824-1.17c-1.561-1.561-1.561-4.089,0-5.649L504.525,156.97
			c1.561-1.561,4.089-1.561,5.649,0s1.561,4.088,0,5.649L302.441,370.357C301.661,371.136,300.639,371.527,299.616,371.527z"/>
		<path style="fill:#3A3847;" d="M299.616,403.485c-1.021,0-2.044-0.391-2.824-1.17c-1.561-1.561-1.561-4.089,0-5.649l207.733-207.73
			c1.561-1.561,4.089-1.561,5.649,0s1.561,4.088,0,5.649L302.44,402.315C301.661,403.095,300.639,403.485,299.616,403.485z"/>
		<path style="fill:#3A3847;" d="M507.351,195.756c-2.209,0-3.995-1.787-3.995-3.995v-31.967c0-2.208,1.786-3.995,3.995-3.995
			c2.208,0,3.994,1.787,3.994,3.995v31.967C511.345,193.969,509.559,195.756,507.351,195.756z"/>
		<path style="fill:#3A3847;" d="M227.709,371.527c-1.022,0-2.045-0.391-2.825-1.17c-1.561-1.561-1.561-4.089,0-5.649l31.958-31.959
			c1.561-1.561,4.089-1.561,5.649,0s1.561,4.089,0,5.649l-31.959,31.959C229.753,371.136,228.731,371.527,227.709,371.527z"/>
		<path style="fill:#3A3847;" d="M267.657,371.511c-1.021,0-2.044-0.391-2.824-1.17c-1.561-1.561-1.561-4.089,0-5.649l55.928-55.913
			c1.561-1.561,4.089-1.561,5.649,0s1.561,4.089,0,5.649l-55.929,55.913C269.702,371.12,268.68,371.511,267.657,371.511z"/>
		<path style="fill:#3A3847;" d="M395.821,197.082l-5.648-5.649l34.128-34.124c1.56-1.553,4.088-1.557,5.648,0.004
			s1.561,4.093,0,5.653L395.821,197.082z"/>
		<path style="fill:#3A3847;" d="M291.635,155.815c-1.022,0-2.044-0.39-2.825-1.17c-1.561-1.561-1.561-4.088,0-5.649l39.957-39.964
			c1.561-1.561,4.089-1.561,5.648,0c1.561,1.561,1.561,4.088,0,5.649l-39.956,39.964
			C293.679,155.424,292.657,155.815,291.635,155.815z"/>
		<path style="fill:#3A3847;" d="M291.635,195.74c-1.022,0-2.044-0.391-2.825-1.171c-1.561-1.561-1.561-4.088,0-5.649l79.891-79.89
			c1.561-1.561,4.088-1.561,5.648,0s1.561,4.088,0,5.649l-79.89,79.89C293.679,195.35,292.657,195.74,291.635,195.74z"/>
		<path style="fill:#3A3847;" d="M187.76,371.527c-1.022,0-2.044-0.391-2.824-1.17c-1.561-1.561-1.561-4.089,0-5.649l7.927-7.928
			c1.56-1.561,4.088-1.561,5.649,0s1.561,4.089,0,5.649l-7.927,7.928C189.804,371.136,188.782,371.527,187.76,371.527z"/>
		<path style="fill:#3A3847;" d="M115.852,371.527c-1.022,0-2.044-0.391-2.825-1.17c-1.561-1.561-1.561-4.089,0-5.649l8.239-8.239
			c1.561-1.561,4.089-1.561,5.649,0s1.561,4.088,0,5.648l-8.239,8.24C117.897,371.136,116.874,371.527,115.852,371.527z"/>
	</g>
</svg>
